<svg width="131" height="136" viewBox="0 0 131 136" fill="none" xmlns="http://www.w3.org/2000/svg">
<path d="M11.6055 130H9.18848L5.97168 124.744L2.72852 130H0.478516L4.74121 123.338L0.750977 117.15H3.08887L6.05957 122.011L9.03027 117.15H11.2979L7.28125 123.373L11.6055 130ZM17.0371 126.001V124.331H33.5957V126.001H17.0371ZM50.1543 130H47.7373L44.5205 124.744L41.2773 130H39.0273L43.29 123.338L39.2998 117.15H41.6377L44.6084 122.011L47.5791 117.15H49.8467L45.8301 123.373L50.1543 130ZM50.1895 120.279H52.4395L54.417 125.79C54.7158 126.575 54.915 127.313 55.0146 128.005H55.085C55.1377 127.683 55.2344 127.293 55.375 126.836C55.5156 126.373 56.2598 124.188 57.6074 120.279H59.8398L55.6826 131.292C54.9268 133.313 53.667 134.324 51.9033 134.324C51.4463 134.324 51.001 134.274 50.5674 134.175V132.54C50.8779 132.61 51.2324 132.646 51.6309 132.646C52.627 132.646 53.3271 132.068 53.7314 130.914L54.0918 130L50.1895 120.279ZM70.6416 133.437H68.7168V130H62.0547V133.437H60.1475V128.4H60.9385C61.6299 127.41 62.1777 126.215 62.582 124.814C62.9922 123.408 63.2354 121.896 63.3115 120.279H69.2178V128.4H70.6416V133.437ZM67.1875 128.4V121.861H65.0957C64.9844 123.068 64.75 124.258 64.3926 125.43C64.041 126.602 63.6104 127.592 63.1006 128.4H67.1875ZM81.0654 125.122C81.0654 126.71 80.6582 127.949 79.8438 128.84C79.0293 129.73 77.8955 130.176 76.4424 130.176C75.5342 130.176 74.7314 129.971 74.0342 129.561C73.3369 129.15 72.8008 128.562 72.4258 127.794C72.0508 127.026 71.8633 126.136 71.8633 125.122C71.8633 123.546 72.2676 122.315 73.0762 121.431C73.8848 120.546 75.0244 120.104 76.4951 120.104C77.9014 120.104 79.0146 120.558 79.835 121.466C80.6553 122.368 81.0654 123.587 81.0654 125.122ZM73.9902 125.122C73.9902 127.366 74.8193 128.488 76.4775 128.488C78.1182 128.488 78.9385 127.366 78.9385 125.122C78.9385 122.901 78.1123 121.791 76.46 121.791C75.5928 121.791 74.9629 122.078 74.5703 122.652C74.1836 123.227 73.9902 124.05 73.9902 125.122ZM88.2373 124.999V120.279H90.1621V124.999L93.9062 120.279H96.0859L92.2627 124.981L96.4287 130H94.1523L90.1621 125.069V130H88.2373V125.069L84.2559 130H81.9883L86.1455 124.981L82.3311 120.279H84.5107L88.2373 124.999ZM99.9971 120.279V124.182H104.576V120.279H106.642V130H104.576V125.808H99.9971V130H97.9316V120.279H99.9971ZM111.581 120.279V125.263C111.581 125.843 111.534 126.695 111.44 127.82L116.318 120.279H118.841V130H116.854V125.104C116.854 124.835 116.869 124.398 116.898 123.795C116.934 123.191 116.963 122.752 116.986 122.477L112.126 130H109.604V120.279H111.581ZM127.814 120.279H130.082L126.065 124.964L130.425 130H128.052L123.851 125.069V130H121.785V120.279H123.851V124.999L127.814 120.279Z" fill="#666666"/>
<path d="M30.0148 21.2206C32.7679 21.2206 35.0082 18.9803 35.0082 16.2272C35.0082 13.4741 32.7679 11.2339 30.0148 11.2339C27.2617 11.2339 25.0215 13.4741 25.0215 16.2272C25.0215 18.9803 27.2617 21.2206 30.0148 21.2206ZM30.0148 14.0872C31.195 14.0872 32.1548 15.047 32.1548 16.2272C32.1548 17.4074 31.195 18.3672 30.0148 18.3672C28.8346 18.3672 27.8748 17.4074 27.8748 16.2272C27.8748 15.047 28.835 14.0872 30.0148 14.0872Z" fill="#999999"/>
<path d="M94.9297 40.4806C94.9297 43.2337 97.1699 45.474 99.923 45.474C102.676 45.474 104.916 43.2337 104.916 40.4806C104.916 37.7275 102.676 35.4873 99.923 35.4873C97.1699 35.4873 94.9297 37.7275 94.9297 40.4806ZM99.923 38.3406C101.103 38.3406 102.063 39.3004 102.063 40.4806C102.063 41.6608 101.103 42.6206 99.923 42.6206C98.7428 42.6206 97.783 41.6608 97.783 40.4806C97.783 39.3004 98.7432 38.3406 99.923 38.3406Z" fill="#999999"/>
<path d="M105.629 24.9759C106.521 24.9759 107.244 24.2527 107.244 23.3606C107.244 22.4685 106.521 21.7452 105.629 21.7452C104.737 21.7452 104.014 22.4685 104.014 23.3606C104.014 24.2527 104.737 24.9759 105.629 24.9759Z" fill="#999999"/>
<path d="M37.1485 30.6826C38.0407 30.6826 38.7639 29.9594 38.7639 29.0672C38.7639 28.1751 38.0407 27.4519 37.1485 27.4519C36.2564 27.4519 35.5332 28.1751 35.5332 29.0672C35.5332 29.9594 36.2564 30.6826 37.1485 30.6826Z" fill="#999999"/>
<path d="M89.8729 18.43C90.1515 18.7086 90.5167 18.848 90.8816 18.848C91.2464 18.848 91.6117 18.7086 91.8902 18.43L93.5024 16.8179L95.1145 18.43C95.393 18.7086 95.7583 18.848 96.1231 18.848C96.488 18.848 96.8532 18.7086 97.1318 18.43C97.6889 17.8729 97.6889 16.9698 97.1318 16.4127L95.5197 14.8006L97.1318 13.1884C97.6889 12.6313 97.6889 11.7282 97.1318 11.1711C96.5747 10.614 95.6716 10.614 95.1145 11.1711L93.5024 12.7833L91.8902 11.1711C91.3331 10.614 90.43 10.614 89.8729 11.1711C89.3158 11.7282 89.3158 12.6313 89.8729 13.1884L91.485 14.8006L89.8729 16.4127C89.3158 16.9698 89.3158 17.8725 89.8729 18.43Z" fill="#999999"/>
<path d="M24.246 48.3901C24.5245 48.6686 24.8897 48.8081 25.2546 48.8081C25.6195 48.8081 25.9847 48.6686 26.2633 48.3901L27.8754 46.778L29.4875 48.3901C29.7661 48.6686 30.1313 48.8081 30.4962 48.8081C30.8611 48.8081 31.2263 48.6686 31.5048 48.3901C32.062 47.833 32.062 46.9299 31.5048 46.3728L29.8927 44.7607L31.5048 43.1485C32.062 42.5914 32.062 41.6883 31.5048 41.1312C30.9477 40.5741 30.0446 40.5741 29.4875 41.1312L27.8754 42.7433L26.2633 41.1312C25.7062 40.5741 24.8031 40.5741 24.246 41.1312C23.6888 41.6883 23.6888 42.5914 24.246 43.1485L25.8581 44.7607L24.246 46.3728C23.6888 46.9299 23.6888 47.8326 24.246 48.3901Z" fill="#999999"/>
<path d="M72.8153 49.0406C73.6033 49.0406 74.242 48.4018 74.242 47.6139C74.242 46.826 73.6033 46.1873 72.8153 46.1873C72.0274 46.1873 71.3887 46.826 71.3887 47.6139C71.3887 48.4018 72.0274 49.0406 72.8153 49.0406Z" fill="#999999"/>
<path d="M58.5497 49.0406C59.3376 49.0406 59.9764 48.4018 59.9764 47.6139C59.9764 46.826 59.3376 46.1873 58.5497 46.1873C57.7618 46.1873 57.123 46.826 57.123 47.6139C57.123 48.4018 57.7618 49.0406 58.5497 49.0406Z" fill="#999999"/>
<path d="M105.058 70.7263C103.248 69.3677 103.096 67.1735 102.921 64.6337C102.646 60.674 102.305 55.7477 94.3928 54.7583C90.3607 54.2583 86.3635 55.5498 83.1314 58.4017C80.445 60.7742 78.5479 64.0102 77.6641 67.5102L72.1026 64.9832V63.8323C72.1026 63.8191 72.0954 63.808 72.0951 63.7948C77.5553 61.1858 81.7065 56.3248 83.3907 50.4644C84.3395 50.4894 85.2129 50.2344 86.0754 49.6969C87.3989 48.8708 88.2949 47.5276 88.4704 46.1009C88.6473 44.6714 88.2043 43.238 87.2584 42.1665C86.6079 41.4322 85.7636 40.9125 84.8356 40.6579C84.8327 40.4071 84.8227 39.4955 84.8195 39.4006C84.8909 39.2294 84.9429 33.0416 84.9429 33.0416C85.2732 33.0024 85.5949 32.9424 85.8988 32.8372C86.9688 32.4681 87.7852 31.7101 88.3231 30.5859H88.3245C90.1806 26.7075 86.8639 21.2131 80.5631 16.983C81.0046 15.8652 81.0506 14.6461 80.648 13.5034C80.2035 12.2454 79.298 11.2353 78.0956 10.6597C76.8933 10.0815 75.5391 10.0091 74.2782 10.4521C73.1341 10.8562 72.2128 11.6559 71.6193 12.6995C64.374 10.4414 58.0139 11.301 56.1553 15.1794C55.7369 16.0532 55.6467 16.9663 55.8496 17.8504C49.7439 20.6421 46.398 25.92 46.4236 32.808L46.4418 35.1638C46.4557 36.497 46.491 38.9947 46.5174 39.1063C46.5171 39.127 46.5321 40.3062 46.5321 40.6546C45.6739 40.8872 44.8921 41.3484 44.2569 42.0061C43.3082 42.9912 42.812 44.2869 42.8609 45.6548C42.9137 47.1816 43.7804 48.6557 45.1764 49.5977C46.0584 50.1926 46.9429 50.4837 47.9042 50.4683C49.3965 55.92 53.0152 60.4949 57.8434 63.2727C57.843 63.2848 57.8366 63.2948 57.8366 63.3069V64.9829L46.4664 70.1503C41.2406 72.5257 37.8633 77.8339 37.8633 83.6715V95.4065C37.8633 96.1951 38.5014 96.8332 39.2899 96.8332H90.65C91.4385 96.8332 92.0766 96.1951 92.0766 95.4065V88.8378C92.7793 88.9263 93.4905 88.9865 94.2166 88.9865C100.518 88.9865 107.2 84.9084 108.809 80.0824C109.46 78.1271 109.839 74.3126 105.058 70.7263ZM75.2259 13.1442C75.7666 12.9548 76.3462 12.988 76.8602 13.232C77.7183 13.6439 78.1673 14.5545 78.0471 15.449C77.4633 15.1276 76.8648 14.8148 76.2442 14.5177C75.6297 14.2235 75.0165 13.9549 74.4056 13.7035C74.636 13.4613 74.9021 13.258 75.2259 13.1442ZM58.7272 16.4113C59.3696 15.0724 61.3744 14.2934 64.186 14.2934C67.1242 14.2934 70.9445 15.1433 75.0126 17.0911C82.9734 20.9056 87.0598 26.6152 85.749 29.3544C85.4872 29.9019 85.193 30.062 84.9661 30.1415C83.3055 30.7101 79.3668 28.7609 75.187 26.699C74.1602 26.1918 73.0834 25.6597 71.9574 25.1204C70.8525 24.5911 69.7575 24.0825 68.6957 23.5892C64.0883 21.4478 59.3261 19.2325 58.6505 17.3504C58.5393 17.0394 58.5614 16.758 58.7272 16.4113ZM57.2995 20.3211C59.3007 22.3644 63.0361 24.1049 67.4919 26.1765C68.5452 26.6655 69.6305 27.1698 70.7255 27.6952C71.8401 28.2287 72.9072 28.7555 73.9244 29.257C77.1622 30.8563 79.8515 32.1806 82.0889 32.7652V38.1598C77.8199 41.3698 72.9925 42.586 68.4296 41.5884C64.339 40.6953 60.9468 38.1027 59.1242 34.4761C58.9166 34.0638 58.5221 33.7767 58.0667 33.7071C57.6084 33.6333 57.1472 33.7906 56.8265 34.1223C54.9861 36.0169 52.2987 37.1554 49.3101 37.3419C49.3087 36.6536 49.3005 35.9042 49.2934 35.1363L49.2752 32.7969C49.2484 25.4446 53.5384 21.9635 57.2995 20.3211ZM50.3776 48.553C50.2956 48.1532 50.0459 47.8076 49.6921 47.6029C49.3383 47.3996 48.9132 47.3603 48.5248 47.4873C47.973 47.6753 47.463 47.7006 46.7721 47.2323C46.1397 46.8061 45.7328 46.1623 45.7103 45.5535C45.6893 44.9657 45.9025 44.4096 46.3095 43.9873C46.7165 43.5665 47.2625 43.3339 47.8489 43.3339C48.2348 43.3339 48.6193 43.1695 48.8882 42.8938C49.2845 42.4865 49.4068 42.1369 49.3822 40.1899C52.4342 40.0187 55.2658 39.0232 57.4846 37.3376C59.8183 40.9057 63.4976 43.4331 67.8208 44.3761C69.0691 44.6493 70.3299 44.7845 71.5936 44.7845C75.1421 44.7834 78.7006 43.7031 82.0129 41.6462C82.0671 42.2982 82.1973 42.6102 82.4859 42.902C82.7534 43.1738 83.1336 43.3339 83.5156 43.3339C84.1287 43.3339 84.7136 43.5971 85.1191 44.0569C85.5314 44.5223 85.7155 45.124 85.6388 45.7525C85.5664 46.3321 85.1651 46.9006 84.5659 47.2754C83.9639 47.6503 83.4542 47.7074 82.809 47.4802C82.4245 47.3393 81.9969 47.3799 81.6402 47.5775C81.2821 47.7769 81.0271 48.1207 80.9394 48.5209C79.5501 54.8992 74.8357 60.1097 68.6343 62.1188L68.0045 62.325C66.2308 62.9003 64.4182 62.9213 62.7658 62.3878C56.4577 60.358 51.7109 55.0565 50.3776 48.553ZM61.8912 65.1045C62.9723 65.453 64.0968 65.6256 65.2378 65.6256C66.4487 65.6256 67.676 65.4305 68.8854 65.0389L69.2492 64.9201V65.4473C69.2492 67.8073 67.3293 69.7273 64.9692 69.7273C62.6092 69.7273 60.6892 67.8073 60.6892 65.4473V64.6316C61.0901 64.7885 61.4778 64.9715 61.8912 65.1045ZM89.2222 93.9806H80.6622V86.8473C80.6622 86.0587 80.0241 85.4206 79.2356 85.4206C78.447 85.4206 77.8089 86.0587 77.8089 86.8473V93.9806H50.7022V86.8473C50.7022 86.0587 50.0641 85.4206 49.2755 85.4206C48.487 85.4206 47.8489 86.0587 47.8489 86.8473V93.9806H40.7155V83.6722C40.7155 78.9507 43.4366 74.6621 47.647 72.7479L58.2992 67.9068C59.3061 70.6264 61.9037 72.5806 64.9689 72.5806C68.0344 72.5806 70.6317 70.6264 71.6385 67.9065L77.1747 70.422C77.1348 70.9028 77.0956 71.384 77.0956 71.8673C77.0956 79.5709 82.2109 86.0975 89.2222 88.24V93.9806ZM106.101 79.1804C104.888 82.8194 99.2228 86.1339 94.2156 86.1339C86.3493 86.1339 79.9489 79.7335 79.9489 71.8673C79.9489 67.5776 81.8449 63.3436 85.0203 60.5417C87.2663 58.5589 89.9509 57.5057 92.6983 57.5057C93.1441 57.5057 93.5914 57.5335 94.0387 57.5892C99.6212 58.2872 99.8109 61.0317 100.074 64.8299C100.269 67.6597 100.491 70.8668 103.347 73.0082C105.901 74.9239 106.827 77.0015 106.101 79.1804Z" fill="#999999"/>
<path d="M99.9227 73.3524C97.5947 73.3524 95.7012 75.246 95.7012 77.5739C95.7012 79.9005 97.5947 81.794 99.9227 81.794C102.251 81.794 104.144 79.9005 104.144 77.5739C104.144 75.246 102.251 73.3524 99.9227 73.3524ZM99.9227 78.9407C99.169 78.9407 98.5545 78.3276 98.5545 77.5739C98.5545 76.8203 99.169 76.2058 99.9227 76.2058C100.676 76.2058 101.291 76.8203 101.291 77.5739C101.291 78.3276 100.676 78.9407 99.9227 78.9407Z" fill="#999999"/>
<path d="M91.3629 59.5734C89.3038 59.5734 87.6289 61.2479 87.6289 63.3073C87.6289 65.3667 89.3035 67.0413 91.3629 67.0413C93.4222 67.0413 95.0968 65.3667 95.0968 63.3073C95.0968 61.2479 93.4222 59.5734 91.3629 59.5734ZM91.3629 64.1879C90.8781 64.1879 90.4822 63.7924 90.4822 63.3073C90.4822 62.8222 90.8778 62.4267 91.3629 62.4267C91.8479 62.4267 92.2435 62.8222 92.2435 63.3073C92.2435 63.7924 91.8479 64.1879 91.3629 64.1879Z" fill="#999999"/>
<path d="M88.6769 71.1539C88.6769 69.0948 87.0023 67.4199 84.9429 67.4199C82.8835 67.4199 81.209 69.0945 81.209 71.1539C81.209 73.2133 82.8835 74.8878 84.9429 74.8878C87.0023 74.8878 88.6769 73.2133 88.6769 71.1539ZM84.9429 72.0345C84.4582 72.0345 84.0623 71.6389 84.0623 71.1539C84.0623 70.6688 84.4579 70.2733 84.9429 70.2733C85.428 70.2733 85.8235 70.6688 85.8235 71.1539C85.8235 71.6389 85.428 72.0345 84.9429 72.0345Z" fill="#999999"/>
<path d="M89.9351 76.6934C87.8761 76.6934 86.2012 78.3679 86.2012 80.4273C86.2012 82.4867 87.8757 84.1613 89.9351 84.1613C91.9945 84.1613 93.6691 82.4867 93.6691 80.4273C93.6691 78.3679 91.9945 76.6934 89.9351 76.6934ZM89.9351 81.3079C89.4504 81.3079 89.0545 80.9124 89.0545 80.4273C89.0545 79.9422 89.45 79.5467 89.9351 79.5467C90.4202 79.5467 90.8157 79.9422 90.8157 80.4273C90.8157 80.9124 90.4202 81.3079 89.9351 81.3079Z" fill="#999999"/>
<path d="M33.9005 61.7205C33.6358 61.4587 33.3669 61.1926 33.1051 60.918C33.1048 60.9176 33.1044 60.9176 33.1044 60.9173C33.104 60.9173 33.104 60.9169 33.104 60.9166C32.0105 59.7727 31.2818 58.7306 31.2818 57.3667C31.2818 55.5541 30.3413 55.0565 29.7799 54.9217C27.555 54.3589 24.9496 58.7252 23.5953 61.3652C22.7818 62.9521 21.8105 65.173 21.8105 66.7431C21.8105 69.5115 23.3374 71.9072 25.5769 73.2041L24.7516 91.5314C24.6846 93.0123 25.2032 94.4447 26.174 95.459C27.0211 96.3464 28.1328 96.834 29.303 96.834C30.4733 96.834 31.585 96.3464 32.4321 95.459C33.4033 94.4447 33.9215 93.0126 33.8545 91.5314L33.0291 73.2041C35.2687 71.9069 36.7959 69.5112 36.7959 66.7431C36.7955 64.5877 35.2572 63.0637 33.9005 61.7205ZM28.5783 58.7694C28.8429 59.9635 29.424 60.9569 30.097 61.8121C29.5927 62.187 29.0951 62.3846 28.609 62.4042C27.9541 62.4014 27.2436 62.0993 26.6641 61.6798C27.3549 60.4525 28.0337 59.4621 28.5783 58.7694ZM31.004 91.6595C31.0361 92.3657 30.8046 93.0333 30.3702 93.4874C30.1555 93.7131 29.7949 93.9806 29.303 93.9806C28.8112 93.9806 28.4503 93.7131 28.2359 93.4874C27.8011 93.0333 27.57 92.3657 27.6021 91.6595L28.3907 74.1435C28.6931 74.1806 28.9906 74.2359 29.303 74.2359C29.6155 74.2359 29.9129 74.181 30.2154 74.1435L31.004 91.6595ZM29.3027 71.3826C26.7447 71.3826 24.6632 69.3011 24.6632 66.7431C24.6632 66.3386 24.875 65.4787 25.3979 64.2393C26.4251 64.8966 27.4701 65.259 28.5252 65.259C28.5894 65.259 28.6532 65.2576 28.7188 65.2547C29.8873 65.2098 31.0015 64.7507 32.0476 63.9015C33.0787 64.9255 33.9422 65.8236 33.9422 66.7427C33.9422 69.3011 31.8607 71.3826 29.3027 71.3826Z" fill="#999999"/>
</svg>
