<svg width="30" height="29" viewBox="0 0 30 29" fill="none" xmlns="http://www.w3.org/2000/svg"> <rect width="9.15446" height="2.28862" transform="matrix(-0.718931 0.695081 0.718931 0.695081 7.08203 20.8653)" fill="white"/> <path fill-rule="evenodd" clip-rule="evenodd" d="M16.6236 23.9932C10.5366 23.9932 5.82665 19.0917 5.82665 13.3295C5.82665 7.56738 10.5366 2.66591 16.6236 2.66591C22.7105 2.66591 27.4205 7.56738 27.4205 13.3295C27.4205 19.0917 22.7105 23.9932 16.6236 23.9932ZM16.6236 26.6591C9.26188 26.6591 3.29404 20.6912 3.29404 13.3295C3.29404 5.96784 9.26188 0 16.6236 0C23.9853 0 29.9531 5.96784 29.9531 13.3295C29.9531 20.6912 23.9853 26.6591 16.6236 26.6591Z" fill="white"/> </svg>
