<svg width="61" height="31" viewBox="0 0 61 31" fill="none" xmlns="http://www.w3.org/2000/svg"> <path d="M53.225 19.218C50.9 19.218 48.8625 18.4445 47.4875 17.1941C46.1125 18.4445 44.075 19.218 41.75 19.218C39.475 19.218 37.4375 18.4574 36.0625 17.2328C34.6875 18.4574 32.65 19.218 30.375 19.218C28.05 19.218 26.0125 18.4445 24.6375 17.1941C23.2625 18.4445 21.225 19.218 18.9 19.218C16.625 19.218 14.5875 18.4574 13.2125 17.2328C11.8375 18.4703 9.8 19.218 7.525 19.218C3.3 19.218 0 16.6398 0 13.3527V2.00899C0 0.99063 0.8 0.15274 1.8 0.15274C2.8 0.15274 3.6 0.97774 3.6 2.00899C3.6 3.00157 5.325 4.16172 7.5375 4.16172C9.5375 4.16172 11.075 3.27227 11.4125 2.36993C11.4 2.25391 11.4 2.12501 11.4 2.00899C11.4 0.99063 12.2 0.15274 13.2 0.15274H13.2875C14.275 0.15274 15.0875 0.97774 15.0875 2.00899C15.0875 2.12501 15.0875 2.25391 15.075 2.36993C15.4125 3.27227 16.95 4.16172 18.95 4.16172C21.1625 4.16172 22.8875 3.00157 22.8875 2.00899C22.8875 0.99063 23.6875 0.15274 24.6875 0.15274C25.6875 0.15274 26.4875 0.97774 26.4875 2.00899C26.4875 3.00157 28.2125 4.16172 30.425 4.16172C32.425 4.16172 33.9625 3.27227 34.3 2.36993C34.2875 2.25391 34.2875 2.12501 34.2875 2.00899C34.2875 0.99063 35.0875 0.15274 36.0875 0.15274H36.175C37.1625 0.15274 37.975 0.97774 37.975 2.00899C37.975 2.12501 37.975 2.25391 37.9625 2.36993C38.3 3.27227 39.8375 4.16172 41.8375 4.16172C44.05 4.16172 45.775 3.00157 45.775 2.00899C45.775 0.99063 46.575 0.15274 47.575 0.15274C48.5625 0.15274 49.375 0.97774 49.375 2.00899C49.375 3.00157 51.1 4.16172 53.3125 4.16172C55.525 4.16172 57.25 3.00157 57.25 2.00899C57.25 0.99063 58.05 0.15274 59.05 0.15274C60.05 0.15274 60.85 0.97774 60.85 2.00899V13.3527C60.7625 16.6398 57.45 19.218 53.225 19.218ZM49.2875 13.3527C49.2875 14.3453 51.0125 15.5055 53.225 15.5055C55.4375 15.5055 57.1625 14.3453 57.1625 13.3527V7.02344C56.025 7.55196 54.675 7.86133 53.225 7.86133C50.9 7.86133 48.8625 7.08789 47.4875 5.8375C46.1125 7.08789 44.075 7.86133 41.75 7.86133C39.475 7.86133 37.4375 7.10079 36.0625 5.87618C34.6875 7.11368 32.65 7.86133 30.375 7.86133C28.05 7.86133 26.0125 7.08789 24.6375 5.8375C23.2625 7.08789 21.225 7.86133 18.9 7.86133C16.625 7.86133 14.5875 7.10079 13.2125 5.87618C11.8375 7.11368 9.8 7.86133 7.525 7.86133C6.075 7.86133 4.725 7.55196 3.5875 7.02344V13.3527C3.5875 14.3453 5.3125 15.5055 7.525 15.5055C9.525 15.5055 11.0625 14.616 11.4 13.7137C11.3875 13.5977 11.3875 13.4688 11.3875 13.3527C11.3875 12.3344 12.1875 11.4965 13.1875 11.4965H13.275C14.2625 11.4965 15.075 12.3215 15.075 13.3527C15.075 13.4688 15.075 13.5977 15.0625 13.7137C15.4 14.616 16.9375 15.5055 18.9375 15.5055C21.15 15.5055 22.875 14.3453 22.875 13.3527C22.875 12.3344 23.675 11.4965 24.675 11.4965C25.675 11.4965 26.475 12.3215 26.475 13.3527C26.475 14.3453 28.2 15.5055 30.4125 15.5055C32.4125 15.5055 33.95 14.616 34.2875 13.7137C34.275 13.5977 34.275 13.4688 34.275 13.3527C34.275 12.3344 35.075 11.4965 36.075 11.4965H36.1625C37.15 11.4965 37.9625 12.3215 37.9625 13.3527C37.9625 13.4688 37.9625 13.5977 37.95 13.7137C38.2875 14.616 39.825 15.5055 41.825 15.5055C44.0375 15.5055 45.7625 14.3453 45.7625 13.3527C45.7625 12.3344 46.5625 11.4965 47.5625 11.4965C48.4875 11.5094 49.2875 12.3344 49.2875 13.3527Z" fill="#2D527C"/> <path d="M41.7625 30.3555C39.4625 30.3555 37.4375 29.595 36.075 28.3704C34.7 29.595 32.675 30.3555 30.3875 30.3555C28.0625 30.3555 26.025 29.5821 24.65 28.3317C23.275 29.5821 21.2375 30.3555 18.9125 30.3555C14.6875 30.3555 11.3875 27.7774 11.3875 24.4903C11.3875 23.4719 12.1875 22.634 13.1875 22.634H13.275C14.2625 22.634 15.075 23.459 15.075 24.4903C15.075 24.5934 15.0625 24.7094 15.05 24.8125C15.3625 25.7278 16.95 26.6559 18.9375 26.6559C21.15 26.6559 22.875 25.4958 22.875 24.5032C22.875 23.4848 23.675 22.6469 24.675 22.6469C25.675 22.6469 26.475 23.4719 26.475 24.5032C26.475 25.4958 28.2 26.6559 30.4125 26.6559C32.375 26.6559 33.9375 25.7536 34.275 24.8512C34.2625 24.7352 34.2625 24.6192 34.2625 24.4903C34.2625 23.4719 35.0625 22.634 36.0625 22.634H36.15C37.1375 22.634 37.95 23.459 37.95 24.4903C37.95 24.6063 37.95 24.7223 37.9375 24.8512C38.275 25.7536 39.85 26.6559 41.8 26.6559C44.0125 26.6559 45.7375 25.4958 45.7375 24.5032C45.7375 23.4848 46.5375 22.6469 47.5375 22.6469C48.525 22.6469 49.3375 23.4719 49.3375 24.5032C49.2875 27.7903 45.9875 30.3555 41.7625 30.3555Z" fill="#2D527C"/> </svg>
